<?xml version="1.0" encoding="UTF-8" standalone="no"?>
<svg
   xmlns:dc="http://purl.org/dc/elements/1.1/"
   xmlns:cc="http://creativecommons.org/ns#"
   xmlns:rdf="http://www.w3.org/1999/02/22-rdf-syntax-ns#"
   xmlns:svg="http://www.w3.org/2000/svg"
   xmlns="http://www.w3.org/2000/svg"
   xmlns:sodipodi="http://sodipodi.sourceforge.net/DTD/sodipodi-0.dtd"
   xmlns:inkscape="http://www.inkscape.org/namespaces/inkscape"
   width="57"
   height="66"
   viewBox="471.5 467 57 66"
   enable-background="new 471.5 467 57 66"
   version="1.1"
   id="svg14"
   sodipodi:docname="logo.svg"
   inkscape:version="0.92.5 (2060ec1f9f, 2020-04-08)">
  <metadata
     id="metadata20">
    <rdf:RDF>
      <cc:Work
         rdf:about="">
        <dc:format>image/svg+xml</dc:format>
        <dc:type
           rdf:resource="http://purl.org/dc/dcmitype/StillImage" />
      </cc:Work>
    </rdf:RDF>
  </metadata>
  <defs
     id="defs18" />
  <sodipodi:namedview
     pagecolor="#ffffff"
     bordercolor="#666666"
     borderopacity="1"
     objecttolerance="10"
     gridtolerance="10"
     guidetolerance="10"
     inkscape:pageopacity="0"
     inkscape:pageshadow="2"
     inkscape:window-width="1920"
     inkscape:window-height="1043"
     id="namedview16"
     showgrid="false"
     inkscape:zoom="3.5757576"
     inkscape:cx="3.1742926"
     inkscape:cy="9.2846145"
     inkscape:window-x="1920"
     inkscape:window-y="0"
     inkscape:window-maximized="1"
     inkscape:current-layer="svg14" />
  <path
     sodipodi:nodetypes="csccccscssccccsccsccsccccccccccc"
     style="opacity:1;fill:#000000;stroke:#000000;stroke-width:0.94687283;stroke-miterlimit:4;stroke-dasharray:none;stroke-opacity:1"
     inkscape:connector-curvature="0"
     d="m 514.4937,480.62465 c -0.5854,-0.37295 -1.1689,-0.70354 -1.75049,-1.00749 -2.54154,-1.32826 -5.04624,-2.14771 -7.50945,-3.77049 -1.86875,-1.22173 -4.47423,-4.31029 -6.64673,-6.90612 -0.42236,4.17723 -1.62577,5.92835 -3.14354,7.08741 -3.08086,2.42515 -5.02098,3.14353 -7.67853,4.59959 -2.25446,1.21113 -14.42359,8.41425 -14.42359,24.02296 0,4.9853 1.33744,9.55596 3.6353,13.46127 4.89563,8.32651 14.15554,13.65219 24.07793,13.65219 14.58562,0 27.2311,-10.58772 27.2311,-26.62747 0,-8.80093 -3.57456,-14.97132 -7.12213,-18.93159 -2.90825,-3.26118 -5.80011,-5.03062 -6.67084,-5.57833 z m 7.35451,7.07779 c 3.96992,4.966 5.99104,10.82879 5.99104,17.43117 0,3.82625 -0.72803,7.43648 -2.1648,10.74973 -1.36349,3.13389 -3.32096,5.911 -5.83676,8.25419 -4.96601,4.63429 -11.63107,7.18383 -18.77923,7.18383 -3.53889,0 -7.00545,-0.67305 -10.31002,-2.01147 -3.25153,-1.3114 -6.16942,-3.1792 -8.6939,-5.56771 -5.33436,-5.03833 -8.26382,-11.81911 -8.26382,-19.09263 0,-6.47607 2.1021,-12.24147 6.25139,-17.11877 3.17053,-3.72691 6.59177,-5.79239 7.90318,-6.50209 0.64607,-0.35003 1.2391,-0.66535 1.82249,-0.96138 1.8244,-0.93535 3.54852,-1.82249 5.92063,-3.68161 1.26514,-0.96138 2.61319,-2.48783 3.18693,-6.34974 2.00281,2.37983 4.31994,5.04702 6.08843,6.19643 1.57177,1.04142 3.18885,1.76944 4.74229,2.47047 1.47246,0.66535 2.9989,1.35576 4.50895,2.31714 l 0.054,0.0357 c 4.45494,2.73854 6.80778,5.68537 7.57918,6.64579 z"
     id="path128" />
  <path
     inkscape:connector-curvature="0"
     id="path4717"
     d="m 496.38956,530.73859 c -5.55972,-1.06245 -9.97242,-3.30661 -14.00214,-7.12105 -5.58865,-5.29016 -8.36713,-11.54851 -8.37297,-18.85965 -0.008,-10.47182 5.41953,-18.97089 15.57554,-24.3885 5.05938,-2.69886 7.16436,-4.3414 8.18278,-6.38512 0.48954,-0.98238 0.89008,-2.03835 0.89008,-2.3466 0,-1.191 0.51084,-0.89469 2.97689,1.72673 2.34017,2.48762 2.95389,2.91604 7.40516,5.16926 5.77667,2.92416 7.23426,3.87787 10.1148,6.61823 3.69263,3.51296 6.46082,8.27652 7.77081,13.37214 0.82035,3.19111 0.83116,9.69035 0.0217,13.01014 -1.25089,5.12988 -4.52555,10.31164 -8.6112,13.6263 -2.47815,2.01051 -7.37676,4.42814 -10.51092,5.18751 -3.22014,0.78018 -8.46478,0.95927 -11.44046,0.39061 z"
     style="opacity:1;fill:#e53935;fill-opacity:1;stroke:#000000;stroke-width:0;stroke-miterlimit:4;stroke-dasharray:none;stroke-opacity:1" />
  <path
     style="opacity:1;fill:#ffffff;fill-opacity:1;stroke:#000000;stroke-width:0.9594788;stroke-miterlimit:4;stroke-dasharray:none;stroke-opacity:1"
     d="m 473.71291,506.33367 c 0.55025,12.89854 12.75401,24.84863 27.31769,24.88491 14.29437,0.0356 26.58403,-10.57139 26.76745,-24.88491 -14.5605,6.49141 -28.53308,10.62395 -54.08514,0 z"
     id="path2"
     inkscape:connector-curvature="0"
     sodipodi:nodetypes="cscc" />
  <path
     sodipodi:nodetypes="csccsssccsccc"
     style="fill:#ffffff;stroke:#000000;stroke-width:0.89716423;stroke-miterlimit:4;stroke-dasharray:none;stroke-opacity:1"
     inkscape:connector-curvature="0"
     d="m 484.55603,512.34133 c 0.0418,-3.14457 2.01467,-6.15064 4.97198,-7.82691 1.48445,-0.84142 3.21693,-1.34779 5.07769,-1.36841 7.08549,-0.0627 11.98014,7.02281 15.55375,6.95049 3.02781,-0.0617 8.83852,-5.99007 11.68507,-5.99007 3.02781,0 3.87059,3.14354 3.87059,5.02001 0,1.86876 -0.60075,5.26301 -2.05679,7.38248 -1.45606,2.11948 -2.35283,2.90054 -4.04996,2.78483 -2.18311,-0.18033 -6.53778,-6.95242 -9.32453,-7.08742 -3.50995,-0.11567 -11.13447,7.32848 -17.11586,7.32848 -3.62856,0 -4.72495,-0.54674 -5.9274,-1.32877 -1.85141,-1.26512 -2.74818,-3.19656 -2.68551,-5.86278 z"
     id="path132" />
</svg>
